<svg width="1000" height="1000" viewBox="0 0 1000 1000" fill="none" xmlns="http://www.w3.org/2000/svg">
<mask id="mask0_611_2537" style="mask-type:alpha" maskUnits="userSpaceOnUse" x="100" y="100" width="800" height="800">
<path d="M595.745 100C682.566 100 735.394 139.833 779.25 214.473C823.106 289.112 853.883 346.348 880.812 405.905C907.742 465.462 906.086 523.186 877.35 592.31C848.614 661.434 834.597 685.962 783.649 774.299C732.701 862.636 663.563 901.078 576.315 899.977L411.468 897.897C329.121 896.857 265.317 861.15 225.899 789.607C223.903 785.985 221.963 782.386 219.915 778.793C207.128 756.356 157.058 667.835 125.857 603.139C89.8593 528.499 92.9374 464.302 125.856 393.917C155.615 330.287 209.445 234.653 219.505 216.881C220.605 214.937 221.679 212.987 222.764 211.034C263.041 138.539 326.841 99.9998 409.932 100L595.745 100Z" fill="white"/>
</mask>
<g mask="url(#mask0_611_2537)">
<path d="M762.006 224.605C805.669 298.914 836.062 355.479 862.589 414.145C886.821 467.738 885.916 519.605 858.882 584.633C830.665 652.508 817.189 676.114 766.324 764.307C742.189 806.153 714.409 835.063 683.385 853.479C652.434 871.853 617.067 880.49 576.567 879.979L411.721 877.898C336.063 876.943 279.122 844.761 243.416 779.955C242.913 779.043 242.395 778.096 241.864 777.127C240.409 774.471 238.861 771.644 237.292 768.891C224.475 746.402 174.733 658.443 143.871 594.451C126.988 559.443 119.667 527.772 120.012 497.158C120.357 466.481 128.413 435.66 143.973 402.39C173.347 339.582 226.784 244.623 236.91 226.733C237.788 225.182 238.664 223.602 239.489 222.114C239.747 221.648 240 221.191 240.247 220.747C277.081 154.449 334.277 120 409.932 120H595.745C635.884 120 666.862 129.139 692.675 145.993C718.754 163.021 741.008 188.867 762.006 224.605Z" stroke="url(#paint0_linear_611_2537)" stroke-width="40"/>
<path d="M692.194 295.987C724.892 351.636 747.591 393.891 767.386 437.669C784.886 476.372 784.394 513.809 764.545 561.555C743.512 612.149 733.54 629.623 695.412 695.732C677.646 726.536 657.371 747.522 634.987 760.81C612.676 774.054 587.082 780.358 557.488 779.984L433.854 778.424C379.221 777.735 338.485 754.842 312.614 708.764C311.943 707.569 311.125 706.085 310.26 704.516C309.017 702.263 307.676 699.832 306.534 697.825C295.803 678.967 259.878 615.26 237.407 568.666C225.023 542.988 219.76 519.994 220.008 497.924C220.258 475.793 226.063 453.382 237.509 428.91C259.086 382.776 298.129 313.259 306.647 298.197C307.292 297.055 308.012 295.761 308.685 294.551C309.131 293.75 309.556 292.986 309.925 292.328C336.692 244.602 377.8 220 432.449 220H571.809C601.095 220 623.345 226.65 641.773 238.682C660.467 250.887 676.677 269.579 692.194 295.987Z" stroke="url(#paint1_linear_611_2537)" stroke-width="40"/>
<path d="M622.381 367.368C644.116 404.358 659.12 432.304 672.183 461.193C682.95 485.007 682.873 508.012 670.207 538.478C656.358 571.791 649.89 583.133 624.499 627.157C613.102 646.919 600.333 659.982 586.588 668.141C572.917 676.256 557.098 680.226 538.41 679.99L455.987 678.95C422.305 678.525 397.746 664.845 381.757 637.428C380.562 635.38 379.639 633.705 378.615 631.846C377.805 630.376 376.932 628.792 375.812 626.818C367.606 612.359 345.164 572.369 330.943 542.881C323.059 526.534 319.853 512.217 320.005 498.691C320.158 485.104 323.714 471.105 331.045 455.431C344.876 425.857 369.676 381.545 376.357 369.708C376.957 368.646 377.431 367.794 377.873 366.999C378.426 366.004 378.93 365.099 379.567 363.985C396.245 334.803 421.277 320 454.966 320H547.873C566.306 320 579.828 324.16 590.871 331.37C602.179 338.753 612.347 350.291 622.381 367.368Z" stroke="url(#paint2_linear_611_2537)" stroke-width="40"/>
</g>
<defs>
<linearGradient id="paint0_linear_611_2537" x1="500.545" y1="-88.8891" x2="1414.54" y2="675.792" gradientUnits="userSpaceOnUse">
<stop stop-color="#F213A4"/>
<stop offset="1" stop-color="#5204BF"/>
</linearGradient>
<linearGradient id="paint1_linear_611_2537" x1="500.409" y1="58.3332" x2="1185.91" y2="631.844" gradientUnits="userSpaceOnUse">
<stop stop-color="#F213A4"/>
<stop offset="1" stop-color="#5204BF"/>
</linearGradient>
<linearGradient id="paint2_linear_611_2537" x1="500.273" y1="205.555" x2="957.27" y2="587.896" gradientUnits="userSpaceOnUse">
<stop stop-color="#F213A4"/>
<stop offset="1" stop-color="#5204BF"/>
</linearGradient>
</defs>
</svg>
